# Blender v2.78 (sub 0) OBJ File: 'debugLVL.blend'
# www.blender.org
mtllib debugLVL.mtl
o Plane
v -8.000000 0.000000 8.000000
v 8.000000 0.000000 8.000000
v -8.000000 0.000000 -8.000000
v 8.000000 0.000000 -8.000000
v -8.000000 0.000000 -6.545455
v -8.000000 0.000000 -5.090909
v -8.000000 0.000000 -3.636364
v -8.000000 0.000000 -2.181818
v -8.000000 0.000000 -0.727273
v -8.000000 0.000000 0.727273
v -8.000000 0.000000 2.181818
v -8.000000 0.000000 3.636364
v -8.000000 0.000000 5.090909
v -8.000000 0.000000 6.545455
v 8.000000 0.000000 6.545455
v 8.000000 0.000000 5.090909
v 8.000000 0.000000 3.636364
v 8.000000 0.000000 2.181818
v 8.000000 0.000000 0.727273
v 8.000000 0.000000 -0.727273
v 8.000000 0.000000 -2.181818
v 8.000000 0.000000 -3.636364
v 8.000000 0.000000 -5.090909
v 8.000000 0.000000 -6.545455
v -6.545455 0.000000 8.000000
v -5.090909 0.000000 8.000000
v -3.636364 0.000000 8.000000
v -2.181818 0.000000 8.000000
v -0.727273 0.000000 8.000000
v 0.727273 0.000000 8.000000
v 2.181818 0.000000 8.000000
v 3.636364 0.000000 8.000000
v 5.090909 0.000000 8.000000
v 6.545455 0.000000 8.000000
v 6.545455 0.000000 -8.000000
v 5.090909 0.000000 -8.000000
v 3.636364 0.000000 -8.000000
v 2.181818 0.000000 -8.000000
v 0.727273 0.000000 -8.000000
v -0.727273 0.000000 -8.000000
v -2.181818 0.000000 -8.000000
v -3.636364 0.000000 -8.000000
v -5.090909 0.000000 -8.000000
v -6.545455 0.000000 -8.000000
v 6.545455 0.000000 6.545455
v 5.090909 0.000000 6.545455
v 3.636364 0.000000 6.545455
v 2.181818 0.000000 6.545455
v 0.727273 0.000000 6.545455
v -0.727273 0.000000 6.545455
v -2.181818 0.000000 6.545455
v -3.636364 0.000000 6.545455
v -5.090909 0.000000 6.545455
v -6.545455 0.000000 6.545455
v 6.545455 0.000000 5.090909
v 5.090909 0.000000 5.090909
v 3.636364 0.000000 5.090909
v 2.181818 0.000000 5.090909
v 0.727273 0.000000 5.090909
v -0.727273 0.000000 5.090909
v -2.181818 0.000000 5.090909
v -3.636364 0.000000 5.090909
v -5.090909 0.000000 5.090909
v -6.545455 0.000000 5.090909
v 6.545455 0.000000 3.636364
v 5.090909 0.000000 3.636364
v 3.636364 0.000000 3.636364
v 2.181818 0.000000 3.636364
v 0.727273 0.000000 3.636364
v -0.727273 0.000000 3.636364
v -2.181818 0.000000 3.636364
v -3.636364 0.000000 3.636364
v -5.090909 0.000000 3.636364
v -6.545455 0.000000 3.636364
v 6.545455 0.000000 2.181818
v 5.090909 0.000000 2.181818
v 3.636364 0.000000 2.181818
v 2.181818 0.000000 2.181818
v 0.727273 0.000000 2.181818
v -0.727273 0.000000 2.181818
v -2.181818 0.000000 2.181818
v -3.636364 0.000000 2.181818
v -5.090909 0.000000 2.181818
v -6.545455 0.000000 2.181818
v 6.545455 0.000000 0.727273
v 5.090909 0.000000 0.727273
v 3.636364 0.000000 0.727273
v 2.181818 0.000000 0.727273
v -2.181818 0.000000 0.727273
v -3.636364 0.000000 0.727273
v -5.090909 0.000000 0.727273
v -6.545455 0.000000 0.727273
v 6.545455 0.000000 -0.727273
v 5.090909 0.000000 -0.727273
v 3.636364 0.000000 -0.727273
v 2.181818 0.000000 -0.727273
v -2.181818 0.000000 -0.727273
v -3.636364 0.000000 -0.727273
v -5.090909 0.000000 -0.727273
v -6.545455 0.000000 -0.727273
v 6.545455 0.000000 -2.181818
v 5.090909 0.000000 -2.181818
v 3.636364 0.000000 -2.181818
v 2.181818 0.000000 -2.181818
v 0.727273 0.000000 -2.181818
v -0.727273 0.000000 -2.181818
v -2.181818 0.000000 -2.181818
v -3.636364 0.000000 -2.181818
v -5.090909 0.000000 -2.181818
v -6.545455 0.000000 -2.181818
v 6.545455 0.000000 -3.636364
v 5.090909 0.000000 -3.636364
v 3.636364 0.000000 -3.636364
v 2.181818 0.000000 -3.636364
v 0.727273 0.000000 -3.636364
v -0.727273 0.000000 -3.636364
v -2.181818 0.000000 -3.636364
v -3.636364 0.000000 -3.636364
v -5.090909 0.000000 -3.636364
v -6.545455 0.000000 -3.636364
v 6.545455 0.000000 -5.090909
v 5.090909 0.000000 -5.090909
v 3.636364 0.000000 -5.090909
v 2.181818 0.000000 -5.090909
v 0.727273 0.000000 -5.090909
v -0.727273 0.000000 -5.090909
v -2.181818 0.000000 -5.090909
v -3.636364 0.000000 -5.090909
v -5.090909 0.000000 -5.090909
v -6.545455 0.000000 -5.090909
v 6.545455 0.000000 -6.545455
v 5.090909 0.000000 -6.545455
v 3.636364 0.000000 -6.545455
v 2.181818 0.000000 -6.545455
v 0.727273 0.000000 -6.545455
v -0.727273 0.000000 -6.545455
v -2.181818 0.000000 -6.545455
v -3.636364 0.000000 -6.545455
v -5.090909 0.000000 -6.545455
v -6.545455 0.000000 -6.545455
v -8.000000 1.500000 6.545455
v -8.000000 1.500000 8.000000
v 6.545455 1.500000 8.000000
v 8.000000 1.500000 8.000000
v 8.000000 1.500000 -6.545455
v 8.000000 1.500000 -8.000000
v -6.545455 1.500000 -8.000000
v -8.000000 1.500000 -8.000000
v -8.000000 1.500000 -6.545455
v -8.000000 1.500000 -5.090909
v -8.000000 1.500000 -3.636364
v -8.000000 1.500000 -2.181818
v -8.000000 1.500000 -0.727273
v -8.000000 1.500000 0.727273
v -8.000000 1.500000 2.181818
v -8.000000 1.500000 3.636364
v -8.000000 1.500000 5.090909
v 8.000000 1.500000 6.545455
v 8.000000 1.500000 5.090909
v 8.000000 1.500000 3.636364
v 8.000000 1.500000 2.181818
v 8.000000 1.500000 0.727273
v 8.000000 1.500000 -0.727273
v 8.000000 1.500000 -2.181818
v 8.000000 1.500000 -3.636364
v 8.000000 1.500000 -5.090909
v -6.545455 1.500000 6.545455
v -6.545455 1.500000 5.090909
v -6.545455 1.500000 3.636364
v -6.545455 1.500000 2.181818
v -6.545455 1.500000 0.727273
v -6.545455 1.500000 -0.727273
v -6.545455 1.500000 -2.181818
v -6.545455 1.500000 -3.636364
v -6.545455 1.500000 -5.090909
v -6.545455 1.500000 -6.545455
v -6.545455 1.500000 8.000000
v -5.090909 1.500000 8.000000
v -3.636364 1.500000 8.000000
v -2.181818 1.500000 8.000000
v -0.727273 1.500000 8.000000
v 0.727273 1.500000 8.000000
v 2.181818 1.500000 8.000000
v 3.636364 1.500000 8.000000
v 5.090909 1.500000 8.000000
v 6.545455 1.500000 -8.000000
v 5.090909 1.500000 -8.000000
v 3.636364 1.500000 -8.000000
v 2.181818 1.500000 -8.000000
v 0.727273 1.500000 -8.000000
v -0.727273 1.500000 -8.000000
v -2.181818 1.500000 -8.000000
v -3.636364 1.500000 -8.000000
v -5.090909 1.500000 -8.000000
v 6.545455 1.500000 6.545455
v 5.090909 1.500000 6.545455
v 3.636364 1.500000 6.545455
v 2.181818 1.500000 6.545455
v 0.727273 1.500000 6.545455
v -0.727273 1.500000 6.545455
v -2.181818 1.500000 6.545455
v -3.636364 1.500000 6.545455
v -5.090909 1.500000 6.545455
v 6.545455 1.500000 5.090909
v 6.545455 1.500000 3.636364
v 6.545455 1.500000 2.181818
v 2.181818 1.500000 2.181818
v 0.727273 1.500000 2.181818
v -0.727273 1.500000 2.181818
v -2.181818 1.500000 2.181818
v 6.545455 1.500000 0.727273
v 2.181818 1.500000 0.727273
v 0.727273 1.500000 0.727273
v -0.727273 1.500000 0.727273
v -2.181818 1.500000 0.727273
v 6.545455 1.500000 -0.727273
v 2.181818 1.500000 -0.727273
v 0.727273 1.500000 -0.727273
v -0.727273 1.500000 -0.727273
v -2.181818 1.500000 -0.727273
v 6.545455 1.500000 -2.181818
v 2.181818 1.500000 -2.181818
v 0.727273 1.500000 -2.181818
v -0.727273 1.500000 -2.181818
v -2.181818 1.500000 -2.181818
v 6.545455 1.500000 -3.636364
v 6.545455 1.500000 -5.090909
v 6.545455 1.500000 -6.545455
v 5.090909 1.500000 -6.545455
v 3.636364 1.500000 -6.545455
v 2.181818 1.500000 -6.545455
v 0.727273 1.500000 -6.545455
v -0.727273 1.500000 -6.545455
v -2.181818 1.500000 -6.545455
v -3.636364 1.500000 -6.545455
v -5.090909 1.500000 -6.545455
vt 0.2677 0.0616
vt 0.2775 0.0223
vt 0.3167 0.0321
vt 0.3069 0.0715
vt 0.3364 0.4550
vt 0.3462 0.4157
vt 0.3855 0.4255
vt 0.3756 0.4648
vt 0.3560 0.3763
vt 0.3953 0.3862
vt 0.3658 0.3370
vt 0.4051 0.3468
vt 0.3756 0.2977
vt 0.4149 0.3075
vt 0.3855 0.2583
vt 0.4247 0.2682
vt 0.3953 0.2190
vt 0.4345 0.2288
vt 0.4051 0.1796
vt 0.4444 0.1895
vt 0.4149 0.1403
vt 0.4542 0.1501
vt 0.4247 0.1010
vt 0.4640 0.1108
vt 0.2971 0.4452
vt 0.3069 0.4058
vt 0.3167 0.3665
vt 0.3266 0.3272
vt 0.3364 0.2878
vt 0.3462 0.2485
vt 0.3560 0.2092
vt 0.3658 0.1698
vt 0.3756 0.1305
vt 0.3855 0.0911
vt 0.2578 0.4353
vt 0.2677 0.3960
vt 0.2775 0.3567
vt 0.2873 0.3173
vt 0.2971 0.2780
vt 0.3069 0.2387
vt 0.3167 0.1993
vt 0.3266 0.1600
vt 0.3364 0.1206
vt 0.3462 0.0813
vt 0.2186 0.4255
vt 0.2284 0.3862
vt 0.2382 0.3468
vt 0.2480 0.3075
vt 0.2775 0.1895
vt 0.2873 0.1501
vt 0.2971 0.1108
vt 0.1695 0.4550
vt 0.1793 0.4157
vt 0.2088 0.4648
vt 0.1891 0.3763
vt 0.1990 0.3370
vt 0.2088 0.2977
vt 0.2382 0.1796
vt 0.2480 0.1403
vt 0.2578 0.1010
vt 0.1401 0.4058
vt 0.1499 0.3665
vt 0.1597 0.3272
vt 0.1695 0.2878
vt 0.1990 0.1698
vt 0.2088 0.1305
vt 0.2186 0.0911
vt 0.2284 0.0518
vt 0.1008 0.3960
vt 0.1106 0.3567
vt 0.1204 0.3173
vt 0.1302 0.2780
vt 0.1401 0.2387
vt 0.1793 0.2485
vt 0.1499 0.1993
vt 0.1891 0.2092
vt 0.1597 0.1600
vt 0.1695 0.1206
vt 0.1793 0.0813
vt 0.1891 0.0420
vt 0.0615 0.3862
vt 0.0713 0.3468
vt 0.0812 0.3075
vt 0.0910 0.2682
vt 0.1008 0.2288
vt 0.1106 0.1895
vt 0.1204 0.1501
vt 0.1302 0.1108
vt 0.1401 0.0715
vt 0.1499 0.0321
vt 0.0223 0.3763
vt 0.0321 0.3370
vt 0.0419 0.2977
vt 0.0517 0.2583
vt 0.0615 0.2190
vt 0.0713 0.1796
vt 0.0812 0.1403
vt 0.0910 0.1010
vt 0.1008 0.0616
vt 0.1106 0.0223
vt 0.0223 0.2092
vt 0.0321 0.1698
vt 0.4640 0.2780
vt 0.4542 0.3173
vt 0.5502 0.3102
vt 0.5502 0.3507
vt 0.5085 0.3507
vt 0.5085 0.3102
vt 0.3162 0.6311
vt 0.3162 0.6716
vt 0.2745 0.6716
vt 0.2745 0.6311
vt 0.5948 0.5575
vt 0.5948 0.5170
vt 0.6365 0.5170
vt 0.6365 0.5575
vt 0.5502 0.8049
vt 0.5502 0.8454
vt 0.5085 0.8454
vt 0.5085 0.8049
vt 0.5502 0.2696
vt 0.5085 0.2696
vt 0.3162 0.5905
vt 0.2745 0.5905
vt 0.5948 0.5981
vt 0.6365 0.5981
vt 0.7228 0.5575
vt 0.7228 0.5981
vt 0.6810 0.5981
vt 0.6810 0.5575
vt 0.5502 0.8860
vt 0.5085 0.8860
vt 0.3162 0.5500
vt 0.2745 0.5500
vt 0.5948 0.6386
vt 0.6365 0.6386
vt 0.5502 0.6792
vt 0.5502 0.7197
vt 0.5085 0.7197
vt 0.5085 0.6792
vt 0.3162 0.5094
vt 0.2745 0.5094
vt 0.5948 0.6792
vt 0.6365 0.6792
vt 0.8090 0.1439
vt 0.8090 0.1845
vt 0.7673 0.1845
vt 0.7673 0.1439
vt 0.5502 0.6386
vt 0.5085 0.6386
vt 0.6810 0.3102
vt 0.6810 0.2696
vt 0.7228 0.2696
vt 0.7228 0.3102
vt 0.3149 0.8379
vt 0.3149 0.8784
vt 0.2732 0.8784
vt 0.2732 0.8379
vt 0.5502 0.5981
vt 0.5085 0.5981
vt 0.7228 0.4359
vt 0.7228 0.4764
vt 0.6810 0.4764
vt 0.6810 0.4359
vt 0.8090 0.5575
vt 0.8090 0.5981
vt 0.7673 0.5981
vt 0.7673 0.5575
vt 0.5502 0.5575
vt 0.5085 0.5575
vt 0.8090 0.5170
vt 0.7673 0.5170
vt 0.7228 0.1034
vt 0.7228 0.1439
vt 0.6810 0.1439
vt 0.6810 0.1034
vt 0.5502 0.5170
vt 0.5085 0.5170
vt 0.8090 0.4764
vt 0.7673 0.4764
vt 0.4012 0.7568
vt 0.4012 0.7973
vt 0.3595 0.7973
vt 0.3595 0.7568
vt 0.8090 0.0223
vt 0.8090 0.0628
vt 0.7673 0.0628
vt 0.7673 0.0223
vt 0.2299 0.6716
vt 0.2299 0.7122
vt 0.1882 0.7122
vt 0.1882 0.6716
vt 0.3137 0.9648
vt 0.2732 0.9648
vt 0.2732 0.9230
vt 0.3137 0.9230
vt 0.8090 0.4359
vt 0.7673 0.4359
vt 0.5948 0.3102
vt 0.5948 0.2696
vt 0.6365 0.2696
vt 0.6365 0.3102
vt 0.8078 0.9777
vt 0.7673 0.9777
vt 0.7673 0.9359
vt 0.8078 0.9359
vt 0.4025 0.6716
vt 0.4025 0.7122
vt 0.3607 0.7122
vt 0.3607 0.6716
vt 0.2299 0.6311
vt 0.1882 0.6311
vt 0.6810 0.3913
vt 0.6810 0.3507
vt 0.7228 0.3507
vt 0.7228 0.3913
vt 0.3149 0.7568
vt 0.3149 0.7973
vt 0.2732 0.7973
vt 0.2732 0.7568
vt 0.5502 0.4318
vt 0.5502 0.4724
vt 0.5085 0.4724
vt 0.5085 0.4318
vt 0.2299 0.5905
vt 0.1882 0.5905
vt 0.7228 0.5170
vt 0.6810 0.5170
vt 0.3987 0.9648
vt 0.3582 0.9648
vt 0.3582 0.9230
vt 0.3987 0.9230
vt 0.2299 0.5500
vt 0.1882 0.5500
vt 0.7228 0.0223
vt 0.7228 0.0628
vt 0.6810 0.0628
vt 0.6810 0.0223
vt 0.2299 0.5094
vt 0.1882 0.5094
vt 0.4012 0.8379
vt 0.4012 0.8784
vt 0.3595 0.8784
vt 0.3595 0.8379
vt 0.9373 0.8130
vt 0.9777 0.8130
vt 0.9777 0.8535
vt 0.9373 0.8535
vt 0.9373 0.7278
vt 0.9777 0.7278
vt 0.9777 0.7684
vt 0.9373 0.7684
vt 0.7673 0.6427
vt 0.8078 0.6427
vt 0.8078 0.6832
vt 0.7673 0.6832
vt 0.8078 0.7238
vt 0.7673 0.7238
vt 0.8078 0.7643
vt 0.7673 0.7643
vt 0.8078 0.8049
vt 0.7673 0.8049
vt 0.8535 0.0223
vt 0.8940 0.0223
vt 0.8940 0.0628
vt 0.8535 0.0628
vt 0.8940 0.1034
vt 0.8535 0.1034
vt 0.8940 0.1439
vt 0.8535 0.1439
vt 0.8940 0.1845
vt 0.8535 0.1845
vt 0.8927 0.6832
vt 0.8523 0.6832
vt 0.8523 0.6427
vt 0.8927 0.6427
vt 0.8927 0.7238
vt 0.8523 0.7238
vt 0.8927 0.7643
vt 0.8523 0.7643
vt 0.8927 0.8049
vt 0.8523 0.8049
vt 0.0223 0.5905
vt 0.0627 0.5905
vt 0.0627 0.6311
vt 0.0223 0.6311
vt 0.1032 0.5905
vt 0.1032 0.6311
vt 0.1437 0.5905
vt 0.1437 0.6311
vt 0.0223 0.5500
vt 0.0627 0.5500
vt 0.1032 0.5500
vt 0.1437 0.5500
vt 0.2287 0.7973
vt 0.1882 0.7973
vt 0.1882 0.7568
vt 0.2287 0.7568
vt 0.0223 0.5094
vt 0.0627 0.5094
vt 0.1032 0.5094
vt 0.1437 0.5094
vt 0.2287 0.8379
vt 0.1882 0.8379
vt 0.2287 0.8784
vt 0.1882 0.8784
vt 0.2287 0.9190
vt 0.1882 0.9190
vt 0.8523 0.9359
vt 0.8927 0.9359
vt 0.8927 0.9764
vt 0.8523 0.9764
vt 0.5948 0.8860
vt 0.5948 0.8454
vt 0.6352 0.8454
vt 0.6352 0.8860
vt 0.5948 0.8049
vt 0.6352 0.8049
vt 0.5948 0.7643
vt 0.6352 0.7643
vt 0.5948 0.7238
vt 0.6352 0.7238
vt 0.8535 0.3913
vt 0.8535 0.3507
vt 0.8940 0.3507
vt 0.8940 0.3913
vt 0.8535 0.3102
vt 0.8940 0.3102
vt 0.8535 0.2696
vt 0.8940 0.2696
vt 0.8535 0.2291
vt 0.8940 0.2291
vt 0.9373 0.6427
vt 0.9777 0.6427
vt 0.9777 0.6832
vt 0.9373 0.6832
vt 0.8535 0.5981
vt 0.8535 0.5575
vt 0.8940 0.5575
vt 0.8940 0.5981
vt 0.8535 0.5170
vt 0.8940 0.5170
vt 0.8535 0.4764
vt 0.8940 0.4764
vt 0.8535 0.4359
vt 0.8940 0.4359
vt 0.0223 0.8379
vt 0.0223 0.7973
vt 0.0627 0.7973
vt 0.0627 0.8379
vt 0.0223 0.7568
vt 0.0627 0.7568
vt 0.0223 0.7162
vt 0.0627 0.7162
vt 0.0223 0.6757
vt 0.0627 0.6757
vt 0.5502 0.7643
vt 0.5085 0.7643
vt 0.3162 0.7122
vt 0.2745 0.7122
vt 0.5502 0.3913
vt 0.5085 0.3913
vt 0.8927 0.8913
vt 0.8523 0.8913
vt 0.8523 0.8495
vt 0.8927 0.8495
vt 0.0627 0.9243
vt 0.0223 0.9243
vt 0.0223 0.8825
vt 0.0627 0.8825
vt 0.7228 0.8495
vt 0.7228 0.8900
vt 0.6810 0.8900
vt 0.6810 0.8495
vt 0.8090 0.1034
vt 0.7673 0.1034
vt 0.4025 0.5094
vt 0.4025 0.5500
vt 0.3607 0.5500
vt 0.3607 0.5094
vt 0.7228 0.7643
vt 0.7228 0.8049
vt 0.6810 0.8049
vt 0.6810 0.7643
vt 0.5502 0.0223
vt 0.5502 0.0628
vt 0.5085 0.0628
vt 0.5085 0.0223
vt 0.7228 0.9306
vt 0.6810 0.9306
vt 0.4025 0.5905
vt 0.3607 0.5905
vt 0.7228 0.7238
vt 0.6810 0.7238
vt 0.5502 0.1034
vt 0.5085 0.1034
vt 0.7228 0.9711
vt 0.6810 0.9711
vt 0.6340 0.9724
vt 0.5935 0.9724
vt 0.5935 0.9306
vt 0.6340 0.9306
vt 0.4025 0.6311
vt 0.3607 0.6311
vt 0.7228 0.6832
vt 0.6810 0.6832
vt 0.5502 0.1439
vt 0.5085 0.1439
vt 0.7228 0.6427
vt 0.6810 0.6427
vt 0.5502 0.1845
vt 0.5085 0.1845
vt 0.6365 0.0223
vt 0.6365 0.0628
vt 0.5948 0.0628
vt 0.5948 0.0223
vt 0.5502 0.2250
vt 0.5085 0.2250
vt 0.6365 0.1034
vt 0.5948 0.1034
vt 0.8090 0.3507
vt 0.8090 0.3913
vt 0.7673 0.3913
vt 0.7673 0.3507
vt 0.6365 0.1439
vt 0.5948 0.1439
vt 0.8090 0.3102
vt 0.7673 0.3102
vt 0.5948 0.4724
vt 0.5948 0.4318
vt 0.6365 0.4318
vt 0.6365 0.4724
vt 0.7228 0.1845
vt 0.6810 0.1845
vt 0.6365 0.1845
vt 0.5948 0.1845
vt 0.8090 0.2696
vt 0.7673 0.2696
vt 0.5948 0.3913
vt 0.6365 0.3913
vt 0.6365 0.2250
vt 0.5948 0.2250
vt 0.8090 0.2291
vt 0.7673 0.2291
vt 0.5948 0.3507
vt 0.6365 0.3507
vt 0.8078 0.8913
vt 0.7673 0.8913
vt 0.7673 0.8495
vt 0.8078 0.8495
vt 0.6810 0.2291
vt 0.7228 0.2291
vt 0.5490 0.9724
vt 0.5085 0.9724
vt 0.5085 0.9306
vt 0.5490 0.9306
vn 0.0000 1.0000 0.0000
vn -1.0000 0.0000 0.0000
vn 0.0000 0.0000 1.0000
vn 0.0000 0.0000 -1.0000
vn 1.0000 0.0000 0.0000
usemtl Floor
s off
f 85/1/1 19/2/1 20/3/1 93/4/1
f 130/5/1 129/6/1 139/7/1 140/8/1
f 129/6/1 128/9/1 138/10/1 139/7/1
f 128/9/1 127/11/1 137/12/1 138/10/1
f 127/11/1 126/13/1 136/14/1 137/12/1
f 126/13/1 125/15/1 135/16/1 136/14/1
f 125/15/1 124/17/1 134/18/1 135/16/1
f 124/17/1 123/19/1 133/20/1 134/18/1
f 123/19/1 122/21/1 132/22/1 133/20/1
f 122/21/1 121/23/1 131/24/1 132/22/1
f 120/25/1 119/26/1 129/6/1 130/5/1
f 119/26/1 118/27/1 128/9/1 129/6/1
f 118/27/1 117/28/1 127/11/1 128/9/1
f 117/28/1 116/29/1 126/13/1 127/11/1
f 116/29/1 115/30/1 125/15/1 126/13/1
f 115/30/1 114/31/1 124/17/1 125/15/1
f 114/31/1 113/32/1 123/19/1 124/17/1
f 113/32/1 112/33/1 122/21/1 123/19/1
f 112/33/1 111/34/1 121/23/1 122/21/1
f 110/35/1 109/36/1 119/26/1 120/25/1
f 109/36/1 108/37/1 118/27/1 119/26/1
f 108/37/1 107/38/1 117/28/1 118/27/1
f 107/38/1 106/39/1 116/29/1 117/28/1
f 106/39/1 105/40/1 115/30/1 116/29/1
f 105/40/1 104/41/1 114/31/1 115/30/1
f 104/41/1 103/42/1 113/32/1 114/31/1
f 103/42/1 102/43/1 112/33/1 113/32/1
f 102/43/1 101/44/1 111/34/1 112/33/1
f 100/45/1 99/46/1 109/36/1 110/35/1
f 99/46/1 98/47/1 108/37/1 109/36/1
f 98/47/1 97/48/1 107/38/1 108/37/1
f 96/49/1 95/50/1 103/42/1 104/41/1
f 95/50/1 94/51/1 102/43/1 103/42/1
f 94/51/1 93/4/1 101/44/1 102/43/1
f 10/52/1 92/53/1 100/45/1 9/54/1
f 92/53/1 91/55/1 99/46/1 100/45/1
f 91/55/1 90/56/1 98/47/1 99/46/1
f 90/56/1 89/57/1 97/48/1 98/47/1
f 88/58/1 87/59/1 95/50/1 96/49/1
f 87/59/1 86/60/1 94/51/1 95/50/1
f 86/60/1 85/1/1 93/4/1 94/51/1
f 84/61/1 83/62/1 91/55/1 92/53/1
f 83/62/1 82/63/1 90/56/1 91/55/1
f 82/63/1 81/64/1 89/57/1 90/56/1
f 78/65/1 77/66/1 87/59/1 88/58/1
f 77/66/1 76/67/1 86/60/1 87/59/1
f 76/67/1 75/68/1 85/1/1 86/60/1
f 74/69/1 73/70/1 83/62/1 84/61/1
f 73/70/1 72/71/1 82/63/1 83/62/1
f 72/71/1 71/72/1 81/64/1 82/63/1
f 71/72/1 70/73/1 80/74/1 81/64/1
f 70/73/1 69/75/1 79/76/1 80/74/1
f 69/75/1 68/77/1 78/65/1 79/76/1
f 68/77/1 67/78/1 77/66/1 78/65/1
f 67/78/1 66/79/1 76/67/1 77/66/1
f 66/79/1 65/80/1 75/68/1 76/67/1
f 64/81/1 63/82/1 73/70/1 74/69/1
f 63/82/1 62/83/1 72/71/1 73/70/1
f 62/83/1 61/84/1 71/72/1 72/71/1
f 61/84/1 60/85/1 70/73/1 71/72/1
f 60/85/1 59/86/1 69/75/1 70/73/1
f 59/86/1 58/87/1 68/77/1 69/75/1
f 58/87/1 57/88/1 67/78/1 68/77/1
f 57/88/1 56/89/1 66/79/1 67/78/1
f 56/89/1 55/90/1 65/80/1 66/79/1
f 54/91/1 53/92/1 63/82/1 64/81/1
f 53/92/1 52/93/1 62/83/1 63/82/1
f 52/93/1 51/94/1 61/84/1 62/83/1
f 51/94/1 50/95/1 60/85/1 61/84/1
f 50/95/1 49/96/1 59/86/1 60/85/1
f 49/96/1 48/97/1 58/87/1 59/86/1
f 48/97/1 47/98/1 57/88/1 58/87/1
f 47/98/1 46/99/1 56/89/1 57/88/1
f 46/99/1 45/100/1 55/90/1 56/89/1
f 29/101/1 30/102/1 49/96/1 50/95/1
f 136/14/1 135/16/1 39/103/1 40/104/1
usemtl Wall
f 11/105/2 12/106/2 156/107/2 155/108/2
f 27/109/3 28/110/3 180/111/3 179/112/3
f 53/113/4 54/114/4 167/115/4 203/116/4
f 80/117/3 79/118/3 208/119/3 209/120/3
f 10/121/2 11/105/2 155/108/2 154/122/2
f 26/123/3 27/109/3 179/112/3 178/124/3
f 52/125/4 53/113/4 203/116/4 202/126/4
f 101/127/2 93/128/2 216/129/2 221/130/2
f 79/118/3 78/131/3 207/132/3 208/119/3
f 25/133/3 26/123/3 178/124/3 177/134/3
f 51/135/4 52/125/4 202/126/4 201/136/4
f 8/137/2 9/138/2 153/139/2 152/140/2
f 1/141/3 25/133/3 177/134/3 142/142/3
f 50/143/4 51/135/4 201/136/4 200/144/4
f 55/145/2 45/146/2 195/147/2 204/148/2
f 7/149/2 8/137/2 152/140/2 151/150/2
f 120/151/5 130/152/5 175/153/5 174/154/5
f 96/155/5 104/156/5 222/157/5 217/158/5
f 6/159/2 7/149/2 151/150/2 150/160/2
f 131/161/2 121/162/2 227/163/2 228/164/2
f 48/165/4 49/166/4 199/167/4 198/168/4
f 5/169/2 6/159/2 150/160/2 149/170/2
f 47/171/4 48/165/4 198/168/4 197/172/4
f 74/173/5 84/174/5 170/175/5 169/176/5
f 3/177/2 5/169/2 149/170/2 148/178/2
f 46/179/4 47/171/4 197/172/4 196/180/4
f 107/181/2 97/182/2 220/183/2 225/184/2
f 85/185/2 75/186/2 206/187/2 211/188/2
f 44/189/4 3/190/4 148/191/4 147/192/4
f 9/193/3 100/194/3 172/195/3 153/196/3
f 45/197/4 46/179/4 196/180/4 195/198/4
f 24/199/5 4/200/5 146/201/5 145/202/5
f 92/203/4 10/204/4 154/205/4 171/206/4
f 34/207/3 2/208/3 144/209/3 143/210/3
f 43/211/4 44/189/4 147/192/4 194/212/4
f 100/213/5 110/214/5 173/215/5 172/216/5
f 78/217/5 88/218/5 212/219/5 207/220/5
f 14/221/2 1/222/2 142/223/2 141/224/2
f 42/225/4 43/211/4 194/212/4 193/226/4
f 111/227/2 101/127/2 221/130/2 226/228/2
f 93/229/3 20/230/3 163/231/3 216/232/3
f 41/233/4 42/225/4 193/226/4 192/234/4
f 54/235/5 64/236/5 168/237/5 167/238/5
f 40/239/4 41/233/4 192/234/4 191/240/4
f 89/241/2 81/242/2 210/243/2 215/244/2
f 228/245/1 145/246/1 146/247/1 186/248/1
f 143/249/1 144/250/1 158/251/1 195/252/1
f 195/253/1 158/254/1 159/255/1 204/256/1
f 204/256/1 159/255/1 160/257/1 205/258/1
f 205/258/1 160/257/1 161/259/1 206/260/1
f 206/260/1 161/259/1 162/261/1 211/262/1
f 216/263/1 163/264/1 164/265/1 221/266/1
f 221/266/1 164/265/1 165/267/1 226/268/1
f 226/268/1 165/267/1 166/269/1 227/270/1
f 227/270/1 166/269/1 145/271/1 228/272/1
f 150/273/1 175/274/1 176/275/1 149/276/1
f 151/277/1 174/278/1 175/274/1 150/273/1
f 152/279/1 173/280/1 174/278/1 151/277/1
f 153/281/1 172/282/1 173/280/1 152/279/1
f 220/283/1 219/284/1 224/285/1 225/286/1
f 219/284/1 218/287/1 223/288/1 224/285/1
f 218/287/1 217/289/1 222/290/1 223/288/1
f 215/291/1 214/292/1 219/284/1 220/283/1
f 214/292/1 213/293/1 218/287/1 219/284/1
f 213/293/1 212/294/1 217/289/1 218/287/1
f 155/295/1 170/296/1 171/297/1 154/298/1
f 210/299/1 209/300/1 214/292/1 215/291/1
f 209/300/1 208/301/1 213/293/1 214/292/1
f 208/301/1 207/302/1 212/294/1 213/293/1
f 156/303/1 169/304/1 170/296/1 155/295/1
f 157/305/1 168/306/1 169/304/1 156/303/1
f 141/307/1 167/308/1 168/306/1 157/305/1
f 142/309/1 177/310/1 167/311/1 141/312/1
f 177/313/1 178/314/1 203/315/1 167/316/1
f 178/314/1 179/317/1 202/318/1 203/315/1
f 179/317/1 180/319/1 201/320/1 202/318/1
f 180/319/1 181/321/1 200/322/1 201/320/1
f 182/323/1 183/324/1 198/325/1 199/326/1
f 183/324/1 184/327/1 197/328/1 198/325/1
f 184/327/1 185/329/1 196/330/1 197/328/1
f 185/329/1 143/331/1 195/332/1 196/330/1
f 149/333/1 176/334/1 147/335/1 148/336/1
f 176/337/1 236/338/1 194/339/1 147/340/1
f 236/338/1 235/341/1 193/342/1 194/339/1
f 235/341/1 234/343/1 192/344/1 193/342/1
f 234/343/1 233/345/1 191/346/1 192/344/1
f 232/347/1 231/348/1 189/349/1 190/350/1
f 231/348/1 230/351/1 188/352/1 189/349/1
f 230/351/1 229/353/1 187/354/1 188/352/1
f 229/353/1 228/355/1 186/356/1 187/354/1
f 81/357/3 80/117/3 209/120/3 210/358/3
f 28/110/3 29/359/3 181/360/3 180/111/3
f 12/106/2 13/361/2 157/362/2 156/107/2
f 29/363/5 50/364/5 200/365/5 181/366/5
f 13/361/2 14/221/2 141/224/2 157/362/2
f 49/367/2 30/368/2 182/369/2 199/370/2
f 104/371/4 105/372/4 223/373/4 222/374/4
f 75/186/2 65/375/2 205/376/2 206/187/2
f 97/182/2 89/241/2 215/244/2 220/183/2
f 30/377/3 31/378/3 183/379/3 182/380/3
f 132/381/3 131/382/3 228/383/3 229/384/3
f 2/385/5 15/386/5 158/387/5 144/388/5
f 105/372/4 106/389/4 224/390/4 223/373/4
f 64/236/5 74/173/5 169/176/5 168/237/5
f 31/378/3 32/391/3 184/392/3 183/379/3
f 133/393/3 132/381/3 229/384/3 230/394/3
f 15/386/5 16/395/5 159/396/5 158/387/5
f 106/389/4 107/397/4 225/398/4 224/390/4
f 19/399/4 85/400/4 211/401/4 162/402/4
f 121/162/2 111/227/2 226/228/2 227/163/2
f 32/391/3 33/403/3 185/404/3 184/392/3
f 134/405/3 133/393/3 230/394/3 231/406/3
f 16/395/5 17/407/5 160/408/5 159/396/5
f 88/218/5 96/155/5 217/158/5 212/219/5
f 110/214/5 120/151/5 174/154/5 173/215/5
f 33/403/3 34/207/3 143/210/3 185/404/3
f 135/409/3 134/405/3 231/406/3 232/410/3
f 17/407/5 18/411/5 161/412/5 160/408/5
f 4/413/4 35/414/4 186/415/4 146/416/4
f 18/411/5 19/417/5 162/418/5 161/412/5
f 35/414/4 36/419/4 187/420/4 186/415/4
f 137/421/3 136/422/3 233/423/3 234/424/3
f 36/419/4 37/425/4 188/426/4 187/420/4
f 138/427/3 137/421/3 234/424/3 235/428/3
f 20/429/5 21/430/5 164/431/5 163/432/5
f 84/174/5 92/433/5 171/434/5 170/175/5
f 37/425/4 38/435/4 189/436/4 188/426/4
f 139/437/3 138/427/3 235/428/3 236/438/3
f 21/430/5 22/439/5 165/440/5 164/431/5
f 38/435/4 39/441/4 190/442/4 189/436/4
f 140/443/3 139/437/3 236/438/3 176/444/3
f 22/439/5 23/445/5 166/446/5 165/440/5
f 136/447/5 40/448/5 191/449/5 233/450/5
f 130/152/5 140/451/5 176/452/5 175/153/5
f 23/445/5 24/199/5 145/202/5 166/446/5
f 39/453/2 135/454/2 232/455/2 190/456/2
f 65/375/2 55/145/2 204/148/2 205/376/2
